<?xml version="1.0" encoding="UTF-8"?>
<svg id="Capa_1" data-name="Capa 1" xmlns="http://www.w3.org/2000/svg" viewBox="0 0 1366 768">
  <defs>
    <style>
      .cls-1 {
        fill: #000;
      }

      .cls-1, .cls-2, .cls-3 {
        stroke-width: 0px;
      }

      .cls-2 {
        fill: #60c18f;
      }

      .cls-3 {
        fill: #1cb99d;
      }
    </style>
  </defs>
  <path class="cls-1" d="M458.23,506.43c15.21-7.04,45.82-21.04,61.08-27.94,20.31-9.46,40.78-18.54,61.93-26.02,0,0,.12.27.12.27-19.83,10.49-40.37,19.4-61.08,27.94-15.39,6.55-46.48,19.61-61.93,26.02,0,0-.12-.27-.12-.27h0Z"/>
  <g>
    <g>
      <path class="cls-1" d="M765.53,536.35v-155.42s74.4-11.81,74.4,39.61c0,0-1.21,32.52-32.52,32.52l41.89,83.29h-24.64l-42.32-79.96,6.74-3.41,40.89,76.88h7.64l-43.23-84.87s37.58,5.99,37.58-24.46-33.9-37.44-58.86-34.45v150.26h-7.58Z"/>
      <polygon class="cls-1" points="895.05 536.35 895.05 399.29 854.54 399.29 854.54 391.32 939.87 391.32 939.87 384.25 846.94 384.25 846.94 406.15 888.53 406.15 888.53 536.35 895.05 536.35"/>
    </g>
    <path class="cls-2" d="M597.07,437.47c-5.6-3.98-.32-12.03,5.61-8.38,5.65,4.11.2,12.04-5.61,8.38h0ZM597.07,437.47c4.26,2.63,7.96-3.07,3.94-5.89-4.14-2.67-8,2.95-3.94,5.89h0Z"/>
    <path class="cls-3" d="M584.32,450.86c-5.26-7.41.84-17.93,10.06-16.68,6.06.67,10.54,7.09,9.08,12.99-1.99,9.09-13.99,11.18-19.13,3.69h0ZM584.32,450.86c2.87,4.36,9.52,5.27,13.36,1.87,8.39-7.39-.69-20.4-10.52-15.06-4.51,2.44-5.95,9-2.84,13.19h0Z"/>
    <path class="cls-1" d="M723.29,383.56c-14.01,7.46-42.22,22.32-56.29,29.66-18.71,10.03-37.58,19.68-57.23,27.78,0,0-.14-.27-.14-.27,18.17-11.03,37.13-20.52,56.29-29.66,14.22-6.98,42.95-20.93,57.23-27.78,0,0,.14.27.14.27h0Z"/>
    <path class="cls-1" d="M584.66,451.08c-5.78-8.16,1.03-19.69,11.12-18.32,6.63.75,11.5,7.71,9.91,14.19-2.18,9.95-15.37,12.36-21.03,4.13h0ZM584.66,451.08c3.18,4.83,10.53,5.82,14.82,2.09,9.5-8.27-.64-22.8-11.68-16.72-4.97,2.75-6.57,9.98-3.14,14.64h0Z"/>
    <path class="cls-1" d="M596.77,437.47c-4.15-2.63-3.29-9.48,1.66-10.79,3.41-1.08,7.39,1.58,7.7,5.15.68,5.08-5.34,8.48-9.36,5.64h0ZM596.77,437.47c5.2,3.22,9.87-4.03,5.02-7.49-5.04-3.19-9.98,3.9-5.02,7.49h0Z"/>
    <path class="cls-1" d="M595.23,605.74h-.62c-.8,0-1.46-.63-1.5-1.43-.01-.31-1.43-31.44-4.49-62.09-5.71-57.21-11.86-60.34-13.13-60.34-.01,0-.02,0-.03,0-11.4.52-29.59,14.46-34,17.97-.2.25-.34.41-.39.47-.24.28-.56.46-.89.52-.61.3-1.36.15-1.81-.39-.53-.64-.44-1.58.19-2.11.09-.07.35-.29.78-.63,3.09-3.84,17.76-22.62,18.29-34.28.01-.28-.15-.6-.49-.97-8.76-9.59-91.45-15.29-122.57-16.68-.8-.04-1.43-.69-1.43-1.49v-.62c0-.8.63-1.47,1.43-1.5.31-.01,31.6-1.44,62.41-4.51,58.04-5.79,60.71-12.03,60.65-13.22-.59-13.03-18.68-34.9-18.86-35.12-.41-.49-.46-1.18-.13-1.73.33-.55.97-.83,1.59-.7l.22.05c.24.05.47.16.66.32.22.18,22,18.22,34.98,18.81,1.17.05,7.4-2.6,13.16-60.49,3.06-30.73,4.48-61.94,4.49-62.25v-.55c0-.82.65-1.48,1.46-1.5.86-.02,1.5.62,1.53,1.43.01.31,1.43,31.52,4.49,62.25,5.71,57.36,11.86,60.5,13.13,60.5.01,0,.02,0,.03,0,12.98-.59,34.76-18.63,34.98-18.81.36-.3.84-.41,1.29-.31.46.1.84.41,1.03.84l.22.49c.24.53.16,1.15-.21,1.59-.18.22-18.27,22-18.86,34.98-.01.28.15.6.49.97,8.76,9.59,91.45,15.29,122.57,16.68.8.04,1.43.7,1.43,1.5v.62c0,.8-.63,1.46-1.43,1.5-31.12,1.39-113.81,7.09-122.57,16.68-.33.37-.5.69-.49.97.59,12.97,18.68,34.76,18.86,34.97.38.46.46,1.11.19,1.64l-.22.44c-.21.41-.59.7-1.03.79-.45.09-.91-.02-1.26-.32-.22-.18-22-18.18-34.98-18.77-1.21-.07-7.4,2.6-13.16,60.35-3.06,30.65-4.47,61.77-4.49,62.08-.04.8-.7,1.43-1.5,1.43ZM575.52,478.88c4.6,0,10.55,7.56,16.09,63.05,1.48,14.8,2.57,29.71,3.31,41.23.74-11.52,1.83-26.43,3.31-41.23,5.62-56.28,11.69-63.27,16.28-63.05,9.01.41,21.29,8.05,29.13,13.64-5.63-7.83-13.4-20.21-13.81-29.27-.05-1.1.38-2.16,1.27-3.13,8.41-9.21,69.9-14.33,103.32-16.47-33.42-2.13-94.91-7.26-103.32-16.47-.89-.98-1.32-2.03-1.27-3.13.42-9.09,8.23-21.51,13.86-29.34-7.84,5.61-20.15,13.3-29.17,13.71-4.65.21-10.67-6.78-16.28-63.2-1.27-12.76-2.26-25.6-2.98-36.29-.73,10.81-1.73,23.91-3.02,36.91-5.62,56.42-11.67,63.42-16.28,63.2-8.75-.4-20.6-7.64-28.45-13.19,5.55,7.89,12.74,19.69,13.13,28.43.21,4.65-6.8,10.7-63.36,16.34-14.85,1.48-29.81,2.58-41.38,3.32,33.38,2.13,95.05,7.25,103.47,16.48.89.98,1.32,2.03,1.27,3.13-.39,8.51-7.26,19.93-12.75,27.77,7.84-5.43,19.06-12.07,27.44-12.46.06,0,.13,0,.2,0Z"/>
    <g>
      <path class="cls-1" d="M657.71,351.59c-24.3,0-43.34-34.17-43.34-77.79s19.04-77.79,43.34-77.79c15.48,0,29.4,14.08,37.22,37.66l-6.43,2.13c-6.76-20.37-18.56-33.02-30.79-33.02-19.82,0-36.56,32.52-36.56,71.02s16.74,71.02,36.56,71.02c12.21,0,24-12.62,30.76-32.93l.74-2.21,20.87-.94-.61,4.07c-.15.99-3.75,24.36-16.14,34.91l-4.39-5.16c7.66-6.53,11.51-19.92,13.02-26.67l-7.83.35c-7.95,22.19-21.46,35.35-36.43,35.35Z"/>
      <path class="cls-1" d="M858.69,352.15c-24.3,0-43.34-34.17-43.34-77.79s19.04-77.79,43.34-77.79c15.48,0,29.4,14.08,37.22,37.66l-6.43,2.13c-6.76-20.37-18.56-33.02-30.79-33.02-19.82,0-36.56,32.52-36.56,71.02s16.74,71.02,36.56,71.02c12.21,0,24-12.62,30.76-32.93l.74-2.21,20.88-.94-.61,4.07c-.15.99-3.75,24.36-16.14,34.91l-4.39-5.16c7.66-6.53,11.51-19.92,13.02-26.67l-7.84.35c-7.95,22.19-21.46,35.35-36.43,35.35Z"/>
      <polygon class="cls-1" points="768.97 351.59 721.5 351.59 721.5 196 748.44 196 748.44 247.12 741.66 247.12 741.66 202.78 728.27 202.78 728.27 344.81 768.97 344.81 768.97 351.59"/>
      <polygon class="cls-1" points="784.08 348.2 777.3 348.2 777.3 232.01 803.3 232.01 803.3 277.6 796.53 277.6 796.53 238.78 784.08 238.78 784.08 348.2"/>
      <path class="cls-1" d="M788.84,227.06c-7.82,0-14.17-6.36-14.17-14.17s6.36-14.17,14.17-14.17,14.17,6.36,14.17,14.17-6.36,14.17-14.17,14.17ZM788.84,205.49c-4.08,0-7.4,3.32-7.4,7.4s3.32,7.4,7.4,7.4,7.4-3.32,7.4-7.4-3.32-7.4-7.4-7.4Z"/>
      <polygon class="cls-1" points="991.26 332.53 971.7 346.62 931.37 287.63 931.37 348.2 924.6 348.2 924.6 199.39 931.37 199.39 931.37 275.61 973.38 337.07 981.94 330.89 943.25 273.99 983.63 200.47 989.57 203.74 951.18 273.61 991.26 332.53"/>
    </g>
  </g>
</svg>